<?xml version="1.0" encoding="utf-8"?>
<!-- Generator: Adobe Illustrator 21.1.0, SVG Export Plug-In . SVG Version: 6.00 Build 0)  -->
<svg version="1.1" id="レイヤー_1" xmlns="http://www.w3.org/2000/svg" xmlns:xlink="http://www.w3.org/1999/xlink" x="0px"
	 y="0px" viewBox="0 0 555.5 456" style="enable-background:new 0 0 555.5 456;" xml:space="preserve">
<style type="text/css">
	.st0{fill:#FFFFFF;stroke:#000000;}
	.st1{fill:none;stroke:#000000;stroke-miterlimit:10;}
	.st2{fill:none;stroke:#000000;stroke-width:1.0015;stroke-miterlimit:10;}
	.st3{fill:none;stroke:#000000;stroke-width:0.994;stroke-linejoin:round;stroke-miterlimit:10;}
	.st4{fill:none;stroke:#000000;stroke-width:0.7853;stroke-miterlimit:10;}
	.st5{font-family:'KozGoPr6N-Regular-90ms-RKSJ-H';}
	.st6{font-size:12px;}
	.st7{fill:none;stroke:#000000;stroke-width:0.5;stroke-miterlimit:10;}
</style>
<g transform="translate(0.5,0.5)">
	<ellipse pointer-events="none" class="st0" cx="160" cy="229.3" rx="20" ry="20"/>
	<path pointer-events="none" class="st1" d="M150,229.3c0.8-2.1,2.8-3.5,5-3.5s4.2,1.4,5,3.5s2.8,3.5,5,3.5s4.2-1.4,5-3.5"/>
	<rect x="214.4" y="159.3" pointer-events="none" class="st0" width="51.2" height="19"/>
	<path pointer-events="none" class="st2" d="M265.8,168.8h76.6"/>
	<path pointer-events="none" class="st3" d="M342,168.8v14.9c8.3,0,15,3,15,6.6s-6.7,6.6-15,6.6c8.3,0,15,3,15,6.6s-6.7,6.6-15,6.6
		c8.3,0,15,3,15,6.6s-6.7,6.6-15,6.6c8.3,0,15,3,15,6.6s-6.7,6.6-15,6.6v14.9"/>
	<path pointer-events="none" class="st1" d="M342,249.3v36 M362,293.3h-40 M362,285.3h-40 M342,293.3v36"/>
	<g pointer-events="none">
		<g>
			<polyline class="st4" points="160,209.3 160,169.3 179.1,169.3 			"/>
			<g>
				<polygon points="184.7,169.3 176.9,172.5 178.7,169.3 176.9,166.1 				"/>
			</g>
		</g>
	</g>
	<path pointer-events="none" class="st1" d="M342,329.3H160v-80"/>
	<line class="st4" x1="184.7" y1="169.3" x2="214.4" y2="169.3"/>
</g>
<text transform="matrix(1 0 0 1 192.5 229.3335)" class="st5 st6">e</text>
<text transform="matrix(1 0 0 1 176.1663 159.8238)" class="st5 st6">i</text>
<text transform="matrix(1 0 0 1 235.5 155.3332)" class="st5 st6">R</text>
<text transform="matrix(1 0 0 1 235.5 192.9998)" class="st5 st6">e</text>
<text transform="matrix(0.583 0 0 0.583 241.9678 196.9959)" class="st5 st6">R</text>
<text transform="matrix(1 0 0 1 304.6052 292.6665)" class="st5 st6">e</text>
<text transform="matrix(0.583 0 0 0.583 311.073 296.6626)" class="st5 st6">L</text>
<text transform="matrix(1 0 0 1 304.6049 213.9997)" class="st5 st6">e</text>
<text transform="matrix(0.583 0 0 0.583 311.0727 217.9958)" class="st5 st6">L</text>
<text transform="matrix(1 0 0 1 374.1667 294.9998)" class="st5 st6">C</text>
<text transform="matrix(1 0 0 1 374.1664 217.3333)" class="st5 st6">L</text>
<g>
	<g>
		<line class="st7" x1="258.6" y1="184" x2="225.9" y2="184"/>
		<g>
			<polygon points="222.4,184 227.4,182 226.2,184 227.4,186 			"/>
		</g>
	</g>
</g>
<g>
	<g>
		<line class="st7" x1="318.5" y1="232.1" x2="318.5" y2="199.4"/>
		<g>
			<polygon points="318.5,195.9 320.5,200.9 318.5,199.7 316.5,200.9 			"/>
		</g>
	</g>
</g>
<g>
	<g>
		<line class="st7" x1="318.5" y1="307.9" x2="318.5" y2="275.2"/>
		<g>
			<polygon points="318.5,271.7 320.5,276.7 318.5,275.5 316.5,276.7 			"/>
		</g>
	</g>
</g>
<text transform="matrix(0.583 0 0 0.583 189.5 240.6628)"><tspan x="0" y="0" class="st5 st6">f(Hz)</tspan><tspan x="0" y="24.7" class="st5 st6">E(V)</tspan></text>
</svg>
